<?xml version="1.0" standalone="no"?>
<!DOCTYPE svg PUBLIC "-//W3C//DTD SVG 20010904//EN"
 "http://www.w3.org/TR/2001/REC-SVG-20010904/DTD/svg10.dtd">
<svg version="1.0" xmlns="http://www.w3.org/2000/svg"
 width="512.000000pt" height="512.000000pt" viewBox="0 0 512.000000 512.000000"
 preserveAspectRatio="xMidYMid meet">

<g transform="translate(0.000000,512.000000) scale(0.100000,-0.100000)"
fill="#000000" stroke="none">
<path d="M1856 5103 c-111 -33 -229 -141 -319 -290 -167 -278 -303 -833 -337
-1378 -13 -210 -13 -1254 0 -1369 18 -155 73 -279 173 -392 l49 -54 -124 0
c-218 0 -386 -38 -573 -129 -359 -175 -603 -484 -697 -881 -16 -67 -21 -134
-25 -322 l-5 -236 25 -26 26 -26 2511 0 2511 0 26 26 25 26 -5 236 c-4 188 -9
255 -25 322 -95 404 -343 713 -714 890 -174 82 -347 120 -556 120 l-124 0 49
54 c103 116 156 239 174 405 17 161 6 1369 -14 1536 -49 393 -100 636 -189
895 -115 334 -275 541 -457 594 -85 25 -127 21 -162 -13 l-29 -29 0 -372 0
-371 -25 -24 -24 -25 -461 0 -461 0 -24 25 -25 24 0 371 0 372 -29 29 c-34 34
-83 38 -165 12z m230 -1868 c83 -24 155 -93 182 -173 11 -31 10 -33 -31 -55
-35 -18 -58 -22 -137 -22 -88 0 -101 3 -162 33 -68 33 -138 100 -138 132 0 22
47 65 90 84 45 20 133 20 196 1z m1154 -7 c24 -13 53 -35 64 -50 l20 -28 -30
-42 c-79 -113 -287 -163 -412 -99 -48 24 -45 20 -31 58 17 47 58 100 99 128
84 58 212 72 290 33z m-113 -862 l28 -24 0 -336 0 -335 -23 -23 -23 -23 -549
0 -549 0 -23 23 -23 23 0 335 0 336 28 24 28 24 539 0 539 0 28 -24z m-371
-1701 c202 -35 359 -117 392 -206 34 -89 -87 -193 -288 -248 -296 -82 -698
-23 -845 123 -65 66 -66 118 -2 184 35 37 132 90 212 115 140 46 370 59 531
32z"/>
<path d="M2170 2162 c0 -20 80 -80 135 -101 31 -12 101 -27 156 -33 210 -25
421 29 487 123 15 22 15 22 -24 15 -276 -47 -491 -48 -721 0 -20 4 -33 2 -33
-4z"/>
</g>
</svg>
